<mxfile host="app.diagrams.net" modified="2023-12-21T16:48:14.355Z" agent="Mozilla/5.0 (Windows NT 10.0; Win64; x64) AppleWebKit/537.36 (KHTML, like Gecko) Chrome/120.0.0.0 Safari/537.36" etag="5-8YEW1IsaXnfQZ1wAgd" version="22.1.11" type="device">
  <diagram name="Страница — 1" id="Lv-7ZGSCO5UyyNd_IgUk">
    <mxGraphModel dx="1434" dy="746" grid="1" gridSize="10" guides="1" tooltips="1" connect="1" arrows="1" fold="1" page="1" pageScale="1" pageWidth="1169" pageHeight="827" math="0" shadow="0">
      <root>
        <mxCell id="0" />
        <mxCell id="1" parent="0" />
        <mxCell id="vqmfZEyujTLNs9BYhNjl-10" style="edgeStyle=orthogonalEdgeStyle;rounded=0;orthogonalLoop=1;jettySize=auto;html=1;entryX=0.5;entryY=0;entryDx=0;entryDy=0;" edge="1" parent="1" target="vqmfZEyujTLNs9BYhNjl-3">
          <mxGeometry relative="1" as="geometry">
            <mxPoint x="125" y="170" as="sourcePoint" />
          </mxGeometry>
        </mxCell>
        <mxCell id="vqmfZEyujTLNs9BYhNjl-58" value="" style="edgeStyle=orthogonalEdgeStyle;rounded=0;orthogonalLoop=1;jettySize=auto;html=1;" edge="1" parent="1" source="vqmfZEyujTLNs9BYhNjl-1" target="vqmfZEyujTLNs9BYhNjl-15">
          <mxGeometry relative="1" as="geometry" />
        </mxCell>
        <mxCell id="vqmfZEyujTLNs9BYhNjl-1" value="Неавторизованный &lt;br&gt;пользователь" style="shape=umlActor;verticalLabelPosition=bottom;verticalAlign=top;html=1;outlineConnect=0;" vertex="1" parent="1">
          <mxGeometry x="110" y="70" width="30" height="60" as="geometry" />
        </mxCell>
        <mxCell id="vqmfZEyujTLNs9BYhNjl-3" value="" style="rounded=0;whiteSpace=wrap;html=1;" vertex="1" parent="1">
          <mxGeometry x="120" y="242" width="10" height="60" as="geometry" />
        </mxCell>
        <mxCell id="vqmfZEyujTLNs9BYhNjl-12" value="Окно авторизации" style="rounded=0;whiteSpace=wrap;html=1;" vertex="1" parent="1">
          <mxGeometry x="270" y="70" width="110" height="60" as="geometry" />
        </mxCell>
        <mxCell id="vqmfZEyujTLNs9BYhNjl-20" style="edgeStyle=orthogonalEdgeStyle;rounded=0;orthogonalLoop=1;jettySize=auto;html=1;" edge="1" parent="1" source="vqmfZEyujTLNs9BYhNjl-13">
          <mxGeometry relative="1" as="geometry">
            <mxPoint x="580" y="380" as="targetPoint" />
            <Array as="points">
              <mxPoint x="325" y="380" />
              <mxPoint x="510" y="380" />
            </Array>
          </mxGeometry>
        </mxCell>
        <mxCell id="vqmfZEyujTLNs9BYhNjl-24" style="edgeStyle=orthogonalEdgeStyle;rounded=0;orthogonalLoop=1;jettySize=auto;html=1;exitX=1;exitY=0.25;exitDx=0;exitDy=0;entryX=0;entryY=0.25;entryDx=0;entryDy=0;" edge="1" parent="1" source="vqmfZEyujTLNs9BYhNjl-13" target="vqmfZEyujTLNs9BYhNjl-21">
          <mxGeometry relative="1" as="geometry" />
        </mxCell>
        <mxCell id="vqmfZEyujTLNs9BYhNjl-13" value="Проверка введенных данных" style="whiteSpace=wrap;html=1;aspect=fixed;" vertex="1" parent="1">
          <mxGeometry x="285" y="230" width="80" height="80" as="geometry" />
        </mxCell>
        <mxCell id="vqmfZEyujTLNs9BYhNjl-14" style="edgeStyle=orthogonalEdgeStyle;rounded=0;orthogonalLoop=1;jettySize=auto;html=1;exitX=1;exitY=0.25;exitDx=0;exitDy=0;entryX=0.038;entryY=0.338;entryDx=0;entryDy=0;entryPerimeter=0;" edge="1" parent="1" source="vqmfZEyujTLNs9BYhNjl-3" target="vqmfZEyujTLNs9BYhNjl-13">
          <mxGeometry relative="1" as="geometry" />
        </mxCell>
        <mxCell id="vqmfZEyujTLNs9BYhNjl-15" value="Введенные данные" style="text;html=1;align=center;verticalAlign=middle;resizable=0;points=[];autosize=1;strokeColor=none;fillColor=none;" vertex="1" parent="1">
          <mxGeometry x="135" y="236" width="130" height="30" as="geometry" />
        </mxCell>
        <mxCell id="vqmfZEyujTLNs9BYhNjl-16" value="" style="endArrow=none;dashed=1;html=1;dashPattern=1 3;strokeWidth=2;rounded=0;exitX=1.2;exitY=0.867;exitDx=0;exitDy=0;entryX=0;entryY=0.75;entryDx=0;entryDy=0;exitPerimeter=0;startArrow=classicThin;startFill=0;" edge="1" parent="1" source="vqmfZEyujTLNs9BYhNjl-3" target="vqmfZEyujTLNs9BYhNjl-13">
          <mxGeometry width="50" height="50" relative="1" as="geometry">
            <mxPoint x="440" y="462" as="sourcePoint" />
            <mxPoint x="490" y="412" as="targetPoint" />
          </mxGeometry>
        </mxCell>
        <mxCell id="vqmfZEyujTLNs9BYhNjl-17" value="Ошибка ввода" style="edgeLabel;html=1;align=center;verticalAlign=middle;resizable=0;points=[];" vertex="1" connectable="0" parent="vqmfZEyujTLNs9BYhNjl-16">
          <mxGeometry x="-0.5562" y="-2" relative="1" as="geometry">
            <mxPoint x="36" y="-4" as="offset" />
          </mxGeometry>
        </mxCell>
        <mxCell id="vqmfZEyujTLNs9BYhNjl-18" value="" style="endArrow=none;dashed=1;html=1;dashPattern=1 3;strokeWidth=2;rounded=0;entryX=0.5;entryY=1;entryDx=0;entryDy=0;exitX=0.5;exitY=0;exitDx=0;exitDy=0;" edge="1" parent="1" source="vqmfZEyujTLNs9BYhNjl-13" target="vqmfZEyujTLNs9BYhNjl-12">
          <mxGeometry width="50" height="50" relative="1" as="geometry">
            <mxPoint x="440" y="410" as="sourcePoint" />
            <mxPoint x="490" y="360" as="targetPoint" />
          </mxGeometry>
        </mxCell>
        <mxCell id="vqmfZEyujTLNs9BYhNjl-19" value="Авторизованный&lt;br style=&quot;border-color: var(--border-color);&quot;&gt;пользователь" style="shape=umlActor;verticalLabelPosition=bottom;verticalAlign=top;html=1;outlineConnect=0;" vertex="1" parent="1">
          <mxGeometry x="480" y="70" width="30" height="60" as="geometry" />
        </mxCell>
        <mxCell id="vqmfZEyujTLNs9BYhNjl-21" value="" style="rounded=0;whiteSpace=wrap;html=1;" vertex="1" parent="1">
          <mxGeometry x="490" y="235" width="10" height="60" as="geometry" />
        </mxCell>
        <mxCell id="vqmfZEyujTLNs9BYhNjl-22" value="Доступ к приложению" style="text;html=1;align=center;verticalAlign=middle;resizable=0;points=[];autosize=1;strokeColor=none;fillColor=none;" vertex="1" parent="1">
          <mxGeometry x="335" y="349" width="150" height="30" as="geometry" />
        </mxCell>
        <mxCell id="vqmfZEyujTLNs9BYhNjl-23" value="" style="endArrow=none;dashed=1;html=1;dashPattern=1 3;strokeWidth=2;rounded=0;exitX=0.5;exitY=0;exitDx=0;exitDy=0;" edge="1" parent="1" source="vqmfZEyujTLNs9BYhNjl-21">
          <mxGeometry width="50" height="50" relative="1" as="geometry">
            <mxPoint x="440" y="410" as="sourcePoint" />
            <mxPoint x="495" y="150" as="targetPoint" />
          </mxGeometry>
        </mxCell>
        <mxCell id="vqmfZEyujTLNs9BYhNjl-25" value="Введенные данные" style="text;html=1;align=center;verticalAlign=middle;resizable=0;points=[];autosize=1;strokeColor=none;fillColor=none;" vertex="1" parent="1">
          <mxGeometry x="360" y="220" width="130" height="30" as="geometry" />
        </mxCell>
        <mxCell id="vqmfZEyujTLNs9BYhNjl-26" value="" style="endArrow=none;dashed=1;html=1;dashPattern=1 3;strokeWidth=2;rounded=0;entryX=0;entryY=0.75;entryDx=0;entryDy=0;startArrow=classicThin;startFill=0;exitX=0.988;exitY=0.625;exitDx=0;exitDy=0;exitPerimeter=0;" edge="1" parent="1" source="vqmfZEyujTLNs9BYhNjl-13" target="vqmfZEyujTLNs9BYhNjl-21">
          <mxGeometry width="50" height="50" relative="1" as="geometry">
            <mxPoint x="380" y="280" as="sourcePoint" />
            <mxPoint x="473" y="280" as="targetPoint" />
          </mxGeometry>
        </mxCell>
        <mxCell id="vqmfZEyujTLNs9BYhNjl-27" value="Ошибка ввода" style="edgeLabel;html=1;align=center;verticalAlign=middle;resizable=0;points=[];" vertex="1" connectable="0" parent="vqmfZEyujTLNs9BYhNjl-26">
          <mxGeometry x="-0.5562" y="-2" relative="1" as="geometry">
            <mxPoint x="36" y="-4" as="offset" />
          </mxGeometry>
        </mxCell>
        <mxCell id="vqmfZEyujTLNs9BYhNjl-29" value="Основное окно" style="rounded=0;whiteSpace=wrap;html=1;" vertex="1" parent="1">
          <mxGeometry x="585" y="70" width="120" height="60" as="geometry" />
        </mxCell>
        <mxCell id="vqmfZEyujTLNs9BYhNjl-35" style="edgeStyle=orthogonalEdgeStyle;rounded=0;orthogonalLoop=1;jettySize=auto;html=1;exitX=0.5;exitY=1;exitDx=0;exitDy=0;entryX=0;entryY=0.5;entryDx=0;entryDy=0;" edge="1" parent="1" source="vqmfZEyujTLNs9BYhNjl-31" target="vqmfZEyujTLNs9BYhNjl-34">
          <mxGeometry relative="1" as="geometry" />
        </mxCell>
        <mxCell id="vqmfZEyujTLNs9BYhNjl-31" value="Загрузка предоставляемых путевок" style="rounded=0;whiteSpace=wrap;html=1;" vertex="1" parent="1">
          <mxGeometry x="581" y="349" width="120" height="60" as="geometry" />
        </mxCell>
        <mxCell id="vqmfZEyujTLNs9BYhNjl-32" value="" style="endArrow=none;dashed=1;html=1;dashPattern=1 3;strokeWidth=2;rounded=0;entryX=0.45;entryY=1.033;entryDx=0;entryDy=0;exitX=0.5;exitY=0;exitDx=0;exitDy=0;entryPerimeter=0;" edge="1" parent="1" source="vqmfZEyujTLNs9BYhNjl-31" target="vqmfZEyujTLNs9BYhNjl-29">
          <mxGeometry width="50" height="50" relative="1" as="geometry">
            <mxPoint x="440" y="410" as="sourcePoint" />
            <mxPoint x="490" y="360" as="targetPoint" />
          </mxGeometry>
        </mxCell>
        <mxCell id="vqmfZEyujTLNs9BYhNjl-33" value="Окно информации" style="rounded=0;whiteSpace=wrap;html=1;" vertex="1" parent="1">
          <mxGeometry x="790" y="70" width="120" height="60" as="geometry" />
        </mxCell>
        <mxCell id="vqmfZEyujTLNs9BYhNjl-34" value="Подробная информация путевки" style="rounded=0;whiteSpace=wrap;html=1;" vertex="1" parent="1">
          <mxGeometry x="790" y="440" width="120" height="60" as="geometry" />
        </mxCell>
        <mxCell id="vqmfZEyujTLNs9BYhNjl-36" value="" style="endArrow=none;dashed=1;html=1;dashPattern=1 3;strokeWidth=2;rounded=0;entryX=0.5;entryY=1;entryDx=0;entryDy=0;exitX=0.5;exitY=0;exitDx=0;exitDy=0;" edge="1" parent="1" source="vqmfZEyujTLNs9BYhNjl-34" target="vqmfZEyujTLNs9BYhNjl-33">
          <mxGeometry width="50" height="50" relative="1" as="geometry">
            <mxPoint x="440" y="410" as="sourcePoint" />
            <mxPoint x="490" y="360" as="targetPoint" />
          </mxGeometry>
        </mxCell>
        <mxCell id="vqmfZEyujTLNs9BYhNjl-37" value="База данных&lt;br&gt;сервиса" style="rounded=0;whiteSpace=wrap;html=1;" vertex="1" parent="1">
          <mxGeometry x="1039" y="70" width="120" height="60" as="geometry" />
        </mxCell>
        <mxCell id="vqmfZEyujTLNs9BYhNjl-38" value="Добавление записи в базу данных" style="rounded=0;whiteSpace=wrap;html=1;" vertex="1" parent="1">
          <mxGeometry x="1040" y="440" width="120" height="60" as="geometry" />
        </mxCell>
        <mxCell id="vqmfZEyujTLNs9BYhNjl-39" style="edgeStyle=orthogonalEdgeStyle;rounded=0;orthogonalLoop=1;jettySize=auto;html=1;entryX=0.583;entryY=0;entryDx=0;entryDy=0;entryPerimeter=0;exitX=0.633;exitY=0.017;exitDx=0;exitDy=0;exitPerimeter=0;" edge="1" parent="1" source="vqmfZEyujTLNs9BYhNjl-34" target="vqmfZEyujTLNs9BYhNjl-38">
          <mxGeometry relative="1" as="geometry" />
        </mxCell>
        <mxCell id="vqmfZEyujTLNs9BYhNjl-40" value="Передача идентификатора клиента" style="text;html=1;align=center;verticalAlign=middle;resizable=0;points=[];autosize=1;strokeColor=none;fillColor=none;" vertex="1" parent="1">
          <mxGeometry x="864" y="388" width="220" height="30" as="geometry" />
        </mxCell>
        <mxCell id="vqmfZEyujTLNs9BYhNjl-41" value="" style="endArrow=none;dashed=1;html=1;dashPattern=1 3;strokeWidth=2;rounded=0;entryX=0;entryY=0.5;entryDx=0;entryDy=0;exitX=1;exitY=0.5;exitDx=0;exitDy=0;startArrow=blockThin;startFill=1;" edge="1" parent="1" source="vqmfZEyujTLNs9BYhNjl-34" target="vqmfZEyujTLNs9BYhNjl-38">
          <mxGeometry width="50" height="50" relative="1" as="geometry">
            <mxPoint x="560" y="410" as="sourcePoint" />
            <mxPoint x="610" y="360" as="targetPoint" />
          </mxGeometry>
        </mxCell>
        <mxCell id="vqmfZEyujTLNs9BYhNjl-42" value="Подтверждение &lt;br&gt;добавления" style="text;html=1;align=center;verticalAlign=middle;resizable=0;points=[];autosize=1;strokeColor=none;fillColor=none;" vertex="1" parent="1">
          <mxGeometry x="919" y="433" width="110" height="40" as="geometry" />
        </mxCell>
        <mxCell id="vqmfZEyujTLNs9BYhNjl-43" value="" style="endArrow=none;dashed=1;html=1;dashPattern=1 3;strokeWidth=2;rounded=0;entryX=0.25;entryY=1;entryDx=0;entryDy=0;" edge="1" parent="1" target="vqmfZEyujTLNs9BYhNjl-37">
          <mxGeometry width="50" height="50" relative="1" as="geometry">
            <mxPoint x="1070" y="430" as="sourcePoint" />
            <mxPoint x="610" y="360" as="targetPoint" />
          </mxGeometry>
        </mxCell>
        <mxCell id="vqmfZEyujTLNs9BYhNjl-44" value="" style="endArrow=none;dashed=1;html=1;dashPattern=1 3;strokeWidth=2;rounded=0;entryX=0.25;entryY=1;entryDx=0;entryDy=0;" edge="1" parent="1" target="vqmfZEyujTLNs9BYhNjl-38">
          <mxGeometry width="50" height="50" relative="1" as="geometry">
            <mxPoint x="1070" y="700" as="sourcePoint" />
            <mxPoint x="610" y="360" as="targetPoint" />
          </mxGeometry>
        </mxCell>
        <mxCell id="vqmfZEyujTLNs9BYhNjl-45" value="" style="endArrow=none;html=1;rounded=0;entryX=0.5;entryY=1;entryDx=0;entryDy=0;" edge="1" parent="1" target="vqmfZEyujTLNs9BYhNjl-34">
          <mxGeometry width="50" height="50" relative="1" as="geometry">
            <mxPoint x="850" y="640" as="sourcePoint" />
            <mxPoint x="610" y="360" as="targetPoint" />
          </mxGeometry>
        </mxCell>
        <mxCell id="vqmfZEyujTLNs9BYhNjl-46" value="" style="endArrow=none;dashed=1;html=1;dashPattern=1 3;strokeWidth=2;rounded=0;" edge="1" parent="1">
          <mxGeometry width="50" height="50" relative="1" as="geometry">
            <mxPoint x="640" y="690" as="sourcePoint" />
            <mxPoint x="640" y="470" as="targetPoint" />
          </mxGeometry>
        </mxCell>
        <mxCell id="vqmfZEyujTLNs9BYhNjl-47" value="" style="endArrow=none;dashed=1;html=1;dashPattern=1 3;strokeWidth=2;rounded=0;entryX=0.25;entryY=1;entryDx=0;entryDy=0;exitX=0.25;exitY=0;exitDx=0;exitDy=0;" edge="1" parent="1" source="vqmfZEyujTLNs9BYhNjl-48" target="vqmfZEyujTLNs9BYhNjl-21">
          <mxGeometry width="50" height="50" relative="1" as="geometry">
            <mxPoint x="493" y="500" as="sourcePoint" />
            <mxPoint x="610" y="360" as="targetPoint" />
          </mxGeometry>
        </mxCell>
        <mxCell id="vqmfZEyujTLNs9BYhNjl-48" value="" style="rounded=0;whiteSpace=wrap;html=1;" vertex="1" parent="1">
          <mxGeometry x="490" y="530" width="10" height="60" as="geometry" />
        </mxCell>
        <mxCell id="vqmfZEyujTLNs9BYhNjl-49" value="" style="endArrow=classic;html=1;rounded=0;entryX=1;entryY=0.5;entryDx=0;entryDy=0;" edge="1" parent="1" target="vqmfZEyujTLNs9BYhNjl-48">
          <mxGeometry width="50" height="50" relative="1" as="geometry">
            <mxPoint x="850" y="560" as="sourcePoint" />
            <mxPoint x="610" y="360" as="targetPoint" />
          </mxGeometry>
        </mxCell>
        <mxCell id="vqmfZEyujTLNs9BYhNjl-50" value="Выход из приложения" style="text;html=1;align=center;verticalAlign=middle;resizable=0;points=[];autosize=1;strokeColor=none;fillColor=none;" vertex="1" parent="1">
          <mxGeometry x="636" y="530" width="150" height="30" as="geometry" />
        </mxCell>
        <mxCell id="vqmfZEyujTLNs9BYhNjl-51" value="" style="rounded=0;whiteSpace=wrap;html=1;" vertex="1" parent="1">
          <mxGeometry x="120" y="610" width="10" height="60" as="geometry" />
        </mxCell>
        <mxCell id="vqmfZEyujTLNs9BYhNjl-52" value="" style="endArrow=classic;html=1;rounded=0;entryX=1;entryY=0.5;entryDx=0;entryDy=0;" edge="1" parent="1" target="vqmfZEyujTLNs9BYhNjl-51">
          <mxGeometry width="50" height="50" relative="1" as="geometry">
            <mxPoint x="850" y="640" as="sourcePoint" />
            <mxPoint x="610" y="360" as="targetPoint" />
          </mxGeometry>
        </mxCell>
        <mxCell id="vqmfZEyujTLNs9BYhNjl-53" value="Выход из приложения" style="text;html=1;align=center;verticalAlign=middle;resizable=0;points=[];autosize=1;strokeColor=none;fillColor=none;" vertex="1" parent="1">
          <mxGeometry x="638" y="610" width="150" height="30" as="geometry" />
        </mxCell>
        <mxCell id="vqmfZEyujTLNs9BYhNjl-54" value="" style="endArrow=none;dashed=1;html=1;dashPattern=1 3;strokeWidth=2;rounded=0;exitX=0.5;exitY=1;exitDx=0;exitDy=0;" edge="1" parent="1" source="vqmfZEyujTLNs9BYhNjl-48">
          <mxGeometry width="50" height="50" relative="1" as="geometry">
            <mxPoint x="560" y="410" as="sourcePoint" />
            <mxPoint x="495" y="690" as="targetPoint" />
          </mxGeometry>
        </mxCell>
        <mxCell id="vqmfZEyujTLNs9BYhNjl-55" value="" style="endArrow=none;dashed=1;html=1;dashPattern=1 3;strokeWidth=2;rounded=0;" edge="1" parent="1">
          <mxGeometry width="50" height="50" relative="1" as="geometry">
            <mxPoint x="850" y="690" as="sourcePoint" />
            <mxPoint x="850" y="640" as="targetPoint" />
          </mxGeometry>
        </mxCell>
        <mxCell id="vqmfZEyujTLNs9BYhNjl-56" value="" style="endArrow=none;dashed=1;html=1;dashPattern=1 3;strokeWidth=2;rounded=0;exitX=0.25;exitY=1;exitDx=0;exitDy=0;" edge="1" parent="1">
          <mxGeometry width="50" height="50" relative="1" as="geometry">
            <mxPoint x="124.5" y="670" as="sourcePoint" />
            <mxPoint x="125" y="690" as="targetPoint" />
          </mxGeometry>
        </mxCell>
        <mxCell id="vqmfZEyujTLNs9BYhNjl-57" value="" style="endArrow=none;dashed=1;html=1;dashPattern=1 3;strokeWidth=2;rounded=0;exitX=0.5;exitY=1;exitDx=0;exitDy=0;entryX=0.5;entryY=0;entryDx=0;entryDy=0;" edge="1" parent="1" source="vqmfZEyujTLNs9BYhNjl-3" target="vqmfZEyujTLNs9BYhNjl-51">
          <mxGeometry width="50" height="50" relative="1" as="geometry">
            <mxPoint x="560" y="410" as="sourcePoint" />
            <mxPoint x="610" y="360" as="targetPoint" />
          </mxGeometry>
        </mxCell>
      </root>
    </mxGraphModel>
  </diagram>
</mxfile>
